<svg width="1828" height="619" xmlns="http://www.w3.org/2000/svg" xmlns:xlink="http://www.w3.org/1999/xlink" xml:space="preserve" overflow="hidden"><g transform="translate(-1912 -950)"><path d="M1926 1237.5C1926 1086.45 2048.67 964 2200 964 2351.33 964 2474 1086.45 2474 1237.5 2474 1388.55 2351.33 1511 2200 1511 2048.67 1511 1926 1388.55 1926 1237.5Z" stroke="#FFFFFF" stroke-width="27.5" stroke-miterlimit="8" fill="none" fill-rule="evenodd"/><path d="M2164.19 1278.72C2130.66 1210.9 2158.45 1128.73 2226.28 1095.19 2294.1 1061.66 2376.27 1089.45 2409.81 1157.28 2443.34 1225.1 2415.55 1307.27 2347.72 1340.81 2318.89 1355.06 2285.97 1358.72 2254.71 1351.14L2262.05 1320.87C2318.87 1334.65 2376.09 1299.76 2389.87 1242.95 2403.65 1186.13 2368.76 1128.91 2311.95 1115.13 2255.13 1101.35 2197.91 1136.24 2184.13 1193.05 2178.27 1217.2 2181.1 1242.64 2192.11 1264.92Z" fill="#FFFFFF" fill-rule="evenodd"/><path d="M2256.99 1217.64C2282.37 1288.92 2245.16 1367.27 2173.88 1392.65 2102.6 1418.03 2024.25 1380.82 1998.87 1309.54 1973.49 1238.26 2010.7 1159.91 2081.98 1134.53 2107.22 1125.54 2134.54 1124.16 2160.55 1130.53L2153.05 1161.16C2096.48 1147.29 2039.37 1181.9 2025.5 1238.47 2011.63 1295.05 2046.25 1352.15 2102.82 1366.02 2159.39 1379.89 2216.49 1345.27 2230.36 1288.7 2235.27 1268.67 2234.2 1247.64 2227.29 1228.22Z" fill="#FFFFFF" fill-rule="evenodd"/><text fill="#FFFFFF" font-family="YouYuan,YouYuan_MSFontService,sans-serif" font-weight="700" font-size="183" transform="matrix(1 0 0 1 2603.93 1203)">智链人事</text><path d="M3506 1143.5C3506 1097.38 3543.38 1060 3589.5 1060 3635.62 1060 3673 1097.38 3673 1143.5 3673 1143.98 3673 1144.45 3672.99 1144.93L3646.31 1144.47C3646.84 1113.1 3621.84 1087.23 3590.47 1086.69 3559.1 1086.16 3533.23 1111.16 3532.69 1142.53 3532.69 1142.85 3532.69 1143.18 3532.69 1143.5Z" fill="#FFFFFF" fill-rule="evenodd"/><path d="M3532 1142C3532 1187.84 3494.84 1225 3449 1225 3403.16 1225 3366 1187.84 3366 1142 3366 1141.53 3366 1141.05 3366.01 1140.58L3392.53 1141.03C3392 1172.22 3416.85 1197.93 3448.03 1198.47 3479.22 1199 3504.93 1174.15 3505.47 1142.97 3505.47 1142.64 3505.47 1142.32 3505.47 1142Z" fill="#FFFFFF" fill-rule="evenodd"/><text fill="#FFFFFF" font-family="Bahnschrift SemiBold,Bahnschrift SemiBold_MSFontService,sans-serif" font-weight="600" font-size="183" transform="matrix(1 0 0 1 2603.93 1420)">AI link HR~</text></g></svg>