<svg width="1066" height="827" xmlns="http://www.w3.org/2000/svg" xmlns:xlink="http://www.w3.org/1999/xlink" xml:space="preserve" overflow="hidden"><defs><clipPath id="clip0"><rect x="1665" y="950" width="1066" height="827"/></clipPath></defs><g clip-path="url(#clip0)" transform="translate(-1665 -950)"><path d="M1926 1237.5C1926 1086.45 2048.67 964 2200 964 2351.33 964 2474 1086.45 2474 1237.5 2474 1388.55 2351.33 1511 2200 1511 2048.67 1511 1926 1388.55 1926 1237.5Z" stroke="#FFFFFF" stroke-width="27.5" stroke-miterlimit="8" fill="none" fill-rule="evenodd"/><path d="M2164.19 1278.72C2130.66 1210.9 2158.45 1128.73 2226.28 1095.19 2294.1 1061.66 2376.27 1089.45 2409.81 1157.28 2443.34 1225.1 2415.55 1307.27 2347.72 1340.81 2318.89 1355.06 2285.97 1358.72 2254.71 1351.14L2262.05 1320.87C2318.87 1334.65 2376.09 1299.76 2389.87 1242.95 2403.65 1186.13 2368.76 1128.91 2311.95 1115.13 2255.13 1101.35 2197.91 1136.24 2184.13 1193.05 2178.27 1217.2 2181.1 1242.64 2192.11 1264.92Z" fill="#FFFFFF" fill-rule="evenodd"/><path d="M2256.99 1217.64C2282.37 1288.92 2245.16 1367.27 2173.88 1392.65 2102.6 1418.03 2024.25 1380.82 1998.87 1309.54 1973.49 1238.26 2010.7 1159.91 2081.98 1134.53 2107.22 1125.54 2134.54 1124.16 2160.55 1130.53L2153.05 1161.16C2096.48 1147.29 2039.37 1181.9 2025.5 1238.47 2011.63 1295.05 2046.25 1352.15 2102.82 1366.02 2159.39 1379.89 2216.49 1345.27 2230.36 1288.7 2235.27 1268.67 2234.2 1247.64 2227.29 1228.22Z" fill="#FFFFFF" fill-rule="evenodd"/><text fill="#FFFFFF" font-family="YouYuan,YouYuan_MSFontService,sans-serif" font-weight="700" font-size="83" transform="matrix(1 0 0 1 2241.25 1621)">智链人事</text><path d="M2656 1595.5C2656 1574.79 2672.79 1558 2693.5 1558 2714.21 1558 2731 1574.79 2731 1595.5 2731 1595.71 2731 1595.93 2730.99 1596.14L2719.01 1595.94C2719.25 1581.85 2708.03 1570.23 2693.94 1569.99 2679.85 1569.75 2668.23 1580.97 2667.99 1595.06 2667.99 1595.21 2667.98 1595.35 2667.98 1595.5Z" fill="#FFFFFF" fill-rule="evenodd"/><path d="M2668 1591.5C2668 1612.21 2651.43 1629 2631 1629 2610.57 1629 2594 1612.21 2594 1591.5 2594 1591.29 2594 1591.08 2594.01 1590.87L2605.83 1591.07C2605.59 1605.25 2616.68 1616.93 2630.58 1617.17 2644.48 1617.41 2655.94 1606.11 2656.17 1591.93 2656.17 1591.79 2656.18 1591.64 2656.18 1591.5Z" fill="#FFFFFF" fill-rule="evenodd"/><text fill="#FFFFFF" font-family="Bahnschrift SemiBold,Bahnschrift SemiBold_MSFontService,sans-serif" font-weight="600" font-size="83" transform="matrix(1 0 0 1 2241.25 1710)">AI link HR~</text><rect x="2192" y="1546" width="15.9998" height="173" fill="#FFFFFF"/><text fill="#FFFFFF" font-family="Microsoft YaHei,Microsoft YaHei_MSFontService,sans-serif" font-weight="400" font-size="64" transform="matrix(1 0 0 1 1704.28 1614)">新时代、轻量化</text><text fill="#FFFFFF" font-family="Microsoft YaHei,Microsoft YaHei_MSFontService,sans-serif" font-weight="400" font-size="64" transform="matrix(1 0 0 1 1704.28 1691)">AI</text><text fill="#FFFFFF" font-family="Microsoft YaHei,Microsoft YaHei_MSFontService,sans-serif" font-weight="400" font-size="64" transform="matrix(1 0 0 1 1768.44 1691)">-</text><text fill="#FFFFFF" font-family="Microsoft YaHei,Microsoft YaHei_MSFontService,sans-serif" font-weight="400" font-size="64" transform="matrix(1 0 0 1 1795.94 1691)">HR</text><text fill="#FFFFFF" font-family="Microsoft YaHei,Microsoft YaHei_MSFontService,sans-serif" font-weight="400" font-size="64" transform="matrix(1 0 0 1 1887.61 1691)">解决方案</text></g></svg>